<svg width="129" height="115" viewBox="0 0 129 115" fill="none" xmlns="http://www.w3.org/2000/svg">
<path fill-rule="evenodd" clip-rule="evenodd" d="M115.215 50.2117C104.072 50.7235 95.1946 59.9197 95.1946 71.1892C95.1946 71.7992 95.2206 72.4032 95.2716 73H84.5C83.9356 73 83.3826 73.0492 82.8452 73.1436C80.7742 68.245 70.1946 66.0068 70.1946 67.1892C70.1946 67.6796 71.0436 68.3591 72.1065 69.2097C73.8847 70.6328 76.2613 72.5348 76.2613 74.8311C76.2613 78.5 69.9334 82 69.9334 82C69.9334 82.248 70.5016 82.6405 71.2901 83.1851C73.0783 84.4203 76.0001 86.4384 76.0001 89.3314C76.0001 92.0024 73.5094 93.5281 71.7198 94.6243C70.7164 95.239 69.9333 95.7186 69.9333 96.1895C69.9333 97.3101 79.4393 95.9307 82.1937 91.7181C82.9321 91.9023 83.7046 92 84.5 92H108.753C99.7802 105.381 84.516 114.189 67.1946 114.189C39.5803 114.189 17.1946 91.8034 17.1946 64.1892C17.1946 36.575 39.5803 14.1892 67.1946 14.1892C89.9572 14.1892 109.167 29.4 115.215 50.2117Z" fill="#B0F225"/>
<path d="M38.7781 60.538C37.3576 60.1689 36.4927 58.6894 37.1674 57.386C38.0737 55.6352 39.3802 54.0942 41.0009 52.8877C43.3513 51.1379 46.2311 50.1894 49.1938 50.1892C52.1565 50.189 55.0365 51.1371 57.3871 52.8865C59.008 54.0929 60.3147 55.6337 61.2213 57.3844C61.8962 58.6876 61.0315 60.1672 59.611 60.5366V60.5366C58.2209 60.898 56.8288 60.0364 56.0176 58.851C55.521 58.1255 54.9016 57.4792 54.1797 56.9419C52.7494 55.8774 50.997 55.3005 49.1942 55.3006C47.3914 55.3007 45.6391 55.8779 44.2089 56.9426C43.4871 57.4799 42.8678 58.1263 42.3713 58.8519C41.5602 60.0375 40.1683 60.8992 38.7781 60.538V60.538Z" fill="#238835"/>
<path d="M71.7781 60.538C70.3576 60.1689 69.4927 58.6894 70.1674 57.386C71.0737 55.6352 72.3802 54.0942 74.0009 52.8877C76.3513 51.1379 79.2311 50.1894 82.1938 50.1892C85.1565 50.189 88.0365 51.1371 90.3871 52.8865C92.008 54.0929 93.3147 55.6337 94.2213 57.3844C94.8962 58.6876 94.0315 60.1672 92.611 60.5366V60.5366C91.2209 60.898 89.8288 60.0364 89.0176 58.851C88.521 58.1255 87.9016 57.4792 87.1797 56.9419C85.7494 55.8774 83.997 55.3005 82.1942 55.3006C80.3914 55.3007 78.6391 55.8779 77.2089 56.9426C76.4871 57.4799 75.8678 58.1263 75.3713 58.8519C74.5602 60.0375 73.1683 60.8992 71.7781 60.538V60.538Z" fill="#238835"/>
<path fill-rule="evenodd" clip-rule="evenodd" d="M7.381 27.6366L9.97913 37.0182C10.6391 39.4012 13.7396 40.0115 15.2592 38.0608C18.7829 33.5377 23.7351 27.2424 24.9187 26.0535C26.1394 24.8273 33.2781 19.1202 38.1613 15.2475C40.0884 13.7193 39.466 10.6458 37.0958 9.98939L27.6454 7.37222L7.381 27.6366ZM18.7853 4.91854L4.72549 1.02485C2.47831 0.402517 0.411306 2.46952 1.03364 4.7167L4.92733 18.7765L18.7853 4.91854Z" fill="#FF0000"/>
<path fill-rule="evenodd" clip-rule="evenodd" d="M123 61.3711C123.751 62.8647 124 64.6006 124 66.4453V80C124 82.7612 121.761 85 119 85L82 85.002C80.3433 85.002 79 83.6587 79 82.002C79 80.3452 80.3433 79.002 82 79.002H118V66.4453C118 65.0669 117.8 64.3862 117.639 64.0669C117.531 63.8506 117.405 63.7085 117.054 63.5557C116.949 63.5098 116.828 63.4653 116.688 63.4233C116.461 63.355 116.184 63.292 115.846 63.2368C115.487 63.1787 115.058 63.1299 114.546 63.0933C113.271 63.0015 111.74 63 109.805 63C109.712 63 109.619 62.9956 109.528 62.9873C108.001 63.1265 106.805 64.3994 106.805 65.9492C106.805 67.5923 108.149 68.9238 109.805 68.9238V68.8989H112.805H113.805C115.462 68.8989 116.805 70.2422 116.805 71.8989C116.805 73.5557 115.462 74.8989 113.805 74.8989H112.805H109.805V74.8735C104.835 74.8735 100.805 70.8779 100.805 65.9492C100.805 61.1792 104.58 57.2832 109.329 57.0376C109.484 57.0127 109.643 57 109.805 57H109.886C110.903 57 111.891 57 112.827 57.0186C113.58 57.0332 114.3 57.0601 114.975 57.1084C116.494 57.2173 118.059 57.4487 119.451 58.0557C120.949 58.708 122.197 59.7744 123 61.3711Z" fill="#FF0101"/>
</svg>
