<svg width="129" height="114" viewBox="0 0 129 114" fill="none" xmlns="http://www.w3.org/2000/svg">
<path fill-rule="evenodd" clip-rule="evenodd" d="M115.215 49.4883C104.072 50.0001 95.1946 59.1963 95.1946 70.4658C95.1946 71.0758 95.2206 71.6798 95.2716 72.2766H84.5C83.9355 72.2766 83.3826 72.3258 82.8452 72.4202C80.7742 67.5216 70.1946 65.2834 70.1946 66.4658C70.1946 66.9562 71.0436 67.6357 72.1065 68.4863C73.8847 69.9094 76.2613 71.8114 76.2613 74.1077C76.2613 77.7766 69.9334 81.2766 69.9334 81.2766C69.9334 81.5247 70.5016 81.9171 71.2901 82.4617C73.0783 83.6969 76.0001 85.715 76.0001 88.608C76.0001 91.279 73.5094 92.8047 71.7198 93.9009C70.7164 94.5156 69.9333 94.9952 69.9333 95.4661C69.9333 96.5867 79.4393 95.2073 82.1937 90.9947C82.9321 91.1789 83.7046 91.2766 84.5 91.2766H108.753C99.7802 104.658 84.516 113.466 67.1946 113.466C39.5803 113.466 17.1946 91.0801 17.1946 63.4658C17.1946 35.8516 39.5803 13.4658 67.1946 13.4658C89.9572 13.4658 109.167 28.6766 115.215 49.4883Z" fill="#AA6FF8"/>
<path d="M38.7781 59.8146C37.3577 59.4455 36.4928 57.966 37.1675 56.6626C38.0738 54.9119 39.3803 53.3708 41.001 52.1643C43.3513 50.4145 46.2312 49.466 49.1939 49.4658C52.1566 49.4656 55.0366 50.4137 57.3871 52.1631C59.008 53.3695 60.3147 54.9103 61.2213 56.661C61.8962 57.9642 61.0315 59.4439 59.6111 59.8132V59.8132C58.2209 60.1746 56.8289 59.3131 56.0177 58.1277C55.5211 57.4021 54.9016 56.7558 54.1798 56.2185C52.7494 55.154 50.997 54.5771 49.1942 54.5772C47.3915 54.5774 45.6391 55.1545 44.209 56.2192C43.4872 56.7565 42.8678 57.4029 42.3714 58.1286C41.5603 59.3141 40.1684 60.1758 38.7781 59.8146V59.8146Z" fill="white"/>
<path d="M71.7781 59.8146C70.3576 59.4455 69.4927 57.966 70.1674 56.6626C71.0737 54.9119 72.3802 53.3708 74.0009 52.1643C76.3513 50.4145 79.2311 49.466 82.1938 49.4658C85.1565 49.4656 88.0365 50.4137 90.3871 52.1631C92.008 53.3695 93.3147 54.9103 94.2213 56.661C94.8962 57.9642 94.0315 59.4439 92.611 59.8132C91.2209 60.1746 89.8288 59.3131 89.0176 58.1277C88.521 57.4021 87.9016 56.7558 87.1797 56.2185C85.7494 55.154 83.997 54.5771 82.1942 54.5772C80.3914 54.5774 78.6391 55.1545 77.2089 56.2192C76.4871 56.7565 75.8678 57.4029 75.3713 58.1286C74.5602 59.3141 73.1683 60.1758 71.7781 59.8146Z" fill="white"/>
<path fill-rule="evenodd" clip-rule="evenodd" d="M7.381 26.9132L9.97913 36.2948C10.6391 38.6778 13.7396 39.2881 15.2592 37.3374C18.7829 32.8143 23.7351 26.519 24.9187 25.3301C26.1394 24.1039 33.2781 18.3968 38.1613 14.5241C40.0884 12.9959 39.466 9.92241 37.0958 9.266L27.6454 6.64883L7.381 26.9132ZM18.7853 4.19515L4.72549 0.301458C2.4783 -0.320872 0.411306 1.74613 1.03364 3.99331L4.92733 18.0531L18.7853 4.19515Z" fill="#FF0000"/>
<path fill-rule="evenodd" clip-rule="evenodd" d="M123 60.6479C123.751 62.1411 124 63.8773 124 65.7217V79.2766C124 82.038 121.761 84.2766 119 84.2766V84.2784L82 84.2784C80.3431 84.2784 79 82.9353 79 81.2784C79 79.6216 80.3431 78.2784 82 78.2784L118 78.2784V65.7217C118 64.3436 117.8 63.6628 117.639 63.3434C117.531 63.1274 117.405 62.9853 117.054 62.8324C116.598 62.6335 115.839 62.4622 114.546 62.3696C113.27 62.2782 111.74 62.2766 109.805 62.2766C109.712 62.2766 109.619 62.2723 109.528 62.2639C108.001 62.4029 106.805 63.676 106.805 65.226C106.805 66.8689 108.149 68.2007 109.805 68.2007V68.1756H112.805H113.805C115.462 68.1756 116.805 69.5188 116.805 71.1756C116.805 72.8325 115.462 74.1756 113.805 74.1756H112.805H109.805V74.15C104.835 74.15 100.805 70.1546 100.805 65.226C100.805 60.456 104.58 56.56 109.329 56.3143C109.484 56.2895 109.643 56.2766 109.805 56.2766H109.886H109.886H109.886H109.886C111.722 56.2766 113.462 56.2766 114.975 56.385C116.494 56.4938 118.059 56.7254 119.451 57.3321C120.949 57.9848 122.197 59.0512 123 60.6479Z" fill="#FF0101"/>
</svg>
