<svg width="200" height="400" viewBox="0 0 200 400" fill="none" xmlns="http://www.w3.org/2000/svg">
<g clip-path="url(#clip0_1444_6614)">
<rect width="200" height="400" fill="#FF7E7E"/>
<path d="M250.564 304.632C250.564 349.716 209.497 342.533 158.837 342.533C108.177 342.533 67.1094 349.716 67.1094 304.632C67.1094 259.548 108.177 223 158.837 223C209.497 223 250.564 259.548 250.564 304.632Z" fill="#836141"/>
<path d="M130.618 268.864C130.618 271.203 129.039 272.392 127.09 272.392C125.142 272.392 123.562 271.203 123.562 268.864C123.562 266.526 125.142 265.336 127.09 265.336C129.039 265.336 130.618 266.526 130.618 268.864Z" fill="#463322"/>
<path d="M109.45 275.921C109.45 278.259 107.871 279.449 105.923 279.449C103.974 279.449 102.395 278.259 102.395 275.921C102.395 273.582 103.974 272.393 105.923 272.393C107.871 272.393 109.45 273.582 109.45 275.921Z" fill="#463322"/>
<path d="M123.56 282.977C123.56 285.315 121.98 286.505 120.032 286.505C118.083 286.505 116.504 285.315 116.504 282.977C116.504 280.639 118.083 279.449 120.032 279.449C121.98 279.449 123.56 280.639 123.56 282.977Z" fill="#463322"/>
<path d="M187.061 268.865C187.061 266.526 188.641 265.337 190.589 265.337C192.538 265.337 194.117 266.526 194.117 268.865C194.117 271.203 192.538 272.393 190.589 272.393C188.641 272.393 187.061 271.203 187.061 268.865Z" fill="#463322"/>
<path d="M194.12 282.977C194.12 285.315 195.699 286.505 197.648 286.505C199.596 286.505 201.176 285.315 201.176 282.977C201.176 280.639 199.596 279.449 197.648 279.449C195.699 279.449 194.12 280.639 194.12 282.977Z" fill="#463322"/>
<mask id="path-7-inside-1_1444_6614" fill="white">
<path d="M172.954 265.336C172.954 270.013 171.375 272.392 169.426 272.392C167.478 272.392 165.898 270.013 165.898 265.336C165.898 260.66 167.478 258.28 169.426 258.28C171.375 258.28 172.954 260.66 172.954 265.336Z"/>
</mask>
<path d="M172.954 265.336C172.954 270.013 171.375 272.392 169.426 272.392C167.478 272.392 165.898 270.013 165.898 265.336C165.898 260.66 167.478 258.28 169.426 258.28C171.375 258.28 172.954 260.66 172.954 265.336Z" fill="black"/>
<path d="M165.898 265.336C165.898 267.012 165.595 267.482 165.716 267.259C165.797 267.11 166.087 266.634 166.747 266.171C167.458 265.672 168.399 265.336 169.426 265.336V279.448C173.755 279.448 176.667 276.672 178.126 273.977C179.524 271.395 180.01 268.337 180.01 265.336H165.898ZM169.426 265.336C170.454 265.336 171.395 265.672 172.106 266.171C172.765 266.634 173.056 267.11 173.137 267.259C173.258 267.482 172.954 267.012 172.954 265.336H158.842C158.842 268.337 159.329 271.395 160.727 273.977C162.186 276.672 165.098 279.448 169.426 279.448V265.336ZM172.954 265.336C172.954 263.66 173.258 263.19 173.137 263.414C173.056 263.563 172.765 264.038 172.106 264.501C171.395 265 170.454 265.336 169.426 265.336V251.224C165.098 251.224 162.186 254 160.727 256.696C159.329 259.278 158.842 262.336 158.842 265.336H172.954ZM169.426 265.336C168.399 265.336 167.458 265 166.747 264.501C166.087 264.038 165.797 263.563 165.716 263.414C165.595 263.19 165.898 263.66 165.898 265.336H180.01C180.01 262.336 179.524 259.278 178.126 256.696C176.667 254 173.755 251.224 169.426 251.224V265.336Z" fill="black" mask="url(#path-7-inside-1_1444_6614)"/>
<mask id="path-9-inside-2_1444_6614" fill="white">
<path d="M151.783 265.336C151.783 270.013 150.203 272.392 148.255 272.392C146.306 272.392 144.727 270.013 144.727 265.336C144.727 260.66 146.306 258.28 148.255 258.28C150.203 258.28 151.783 260.66 151.783 265.336Z"/>
</mask>
<path d="M151.783 265.336C151.783 270.013 150.203 272.392 148.255 272.392C146.306 272.392 144.727 270.013 144.727 265.336C144.727 260.66 146.306 258.28 148.255 258.28C150.203 258.28 151.783 260.66 151.783 265.336Z" fill="black"/>
<path d="M144.727 265.336C144.727 267.012 144.423 267.482 144.544 267.259C144.625 267.11 144.916 266.634 145.575 266.171C146.286 265.672 147.227 265.336 148.255 265.336V279.448C152.583 279.448 155.495 276.672 156.954 273.977C158.352 271.395 158.839 268.337 158.839 265.336H144.727ZM148.255 265.336C149.282 265.336 150.223 265.672 150.934 266.171C151.594 266.634 151.884 267.11 151.965 267.259C152.086 267.482 151.783 267.012 151.783 265.336H137.671C137.671 268.337 138.157 271.395 139.555 273.977C141.014 276.672 143.926 279.448 148.255 279.448V265.336ZM151.783 265.336C151.783 263.66 152.086 263.19 151.965 263.414C151.884 263.563 151.594 264.038 150.934 264.501C150.223 265 149.282 265.336 148.255 265.336V251.224C143.926 251.224 141.014 254 139.555 256.696C138.157 259.278 137.671 262.336 137.671 265.336H151.783ZM148.255 265.336C147.227 265.336 146.286 265 145.575 264.501C144.916 264.038 144.625 263.563 144.544 263.414C144.423 263.19 144.727 263.66 144.727 265.336H158.839C158.839 262.336 158.352 259.278 156.954 256.696C155.495 254 152.583 251.224 148.255 251.224V265.336Z" fill="black" mask="url(#path-9-inside-2_1444_6614)"/>
<path d="M151.781 279.448C151.781 279.448 156.332 282.976 158.837 282.976C161.342 282.976 165.893 279.448 165.893 279.448" stroke="black" stroke-width="7.05598" stroke-linecap="round"/>
<path d="M67.1094 314.728H250.564L223.737 415.33C222.914 418.419 220.116 420.568 216.92 420.568H100.754C97.5575 420.568 94.7601 418.419 93.9365 415.33L67.1094 314.728Z" fill="#F03030"/>
<g filter="url(#filter0_d_1444_6614)">
<path d="M53 307.672C53 303.775 56.1591 300.616 60.056 300.616H257.623C261.52 300.616 264.679 303.775 264.679 307.672V321.784C264.679 325.681 261.52 328.84 257.623 328.84H60.056C56.1591 328.84 53 325.681 53 321.784V307.672Z" fill="#F03030"/>
</g>
<path d="M142.312 357.067C142.312 359.865 141.782 362.245 140.721 364.208C139.669 366.171 138.232 367.67 136.412 368.706C134.599 369.733 132.561 370.247 130.298 370.247C128.017 370.247 125.971 369.729 124.159 368.693C122.346 367.658 120.914 366.158 119.862 364.196C118.809 362.233 118.283 359.857 118.283 357.067C118.283 354.269 118.809 351.889 119.862 349.926C120.914 347.963 122.346 346.468 124.159 345.441C125.971 344.405 128.017 343.887 130.298 343.887C132.561 343.887 134.599 344.405 136.412 345.441C138.232 346.468 139.669 347.963 140.721 349.926C141.782 351.889 142.312 354.269 142.312 357.067ZM136.812 357.067C136.812 355.254 136.541 353.726 135.998 352.482C135.464 351.237 134.708 350.293 133.73 349.65C132.753 349.007 131.609 348.685 130.298 348.685C128.986 348.685 127.842 349.007 126.865 349.65C125.888 350.293 125.128 351.237 124.585 352.482C124.05 353.726 123.783 355.254 123.783 357.067C123.783 358.879 124.05 360.408 124.585 361.652C125.128 362.897 125.888 363.841 126.865 364.484C127.842 365.127 128.986 365.448 130.298 365.448C131.609 365.448 132.753 365.127 133.73 364.484C134.708 363.841 135.464 362.897 135.998 361.652C136.541 360.408 136.812 358.879 136.812 357.067ZM146.231 369.896V350.652H151.405V354.01H151.605C151.956 352.816 152.545 351.914 153.372 351.304C154.199 350.686 155.151 350.377 156.228 350.377C156.496 350.377 156.784 350.393 157.093 350.427C157.402 350.46 157.673 350.506 157.907 350.565V355.3C157.657 355.225 157.31 355.158 156.867 355.1C156.425 355.042 156.019 355.012 155.652 355.012C154.867 355.012 154.165 355.183 153.547 355.526C152.937 355.86 152.453 356.328 152.094 356.929C151.743 357.53 151.568 358.224 151.568 359.009V369.896H146.231ZM168.541 370.272C166.561 370.272 164.857 369.871 163.429 369.069C162.009 368.259 160.915 367.115 160.147 365.636C159.378 364.15 158.994 362.391 158.994 360.362C158.994 358.382 159.378 356.645 160.147 355.15C160.915 353.655 161.997 352.49 163.391 351.655C164.795 350.819 166.44 350.402 168.328 350.402C169.597 350.402 170.779 350.606 171.873 351.016C172.976 351.417 173.936 352.022 174.755 352.832C175.581 353.643 176.225 354.661 176.684 355.889C177.143 357.109 177.373 358.537 177.373 360.174V361.64H161.124V358.332H172.349C172.349 357.564 172.182 356.883 171.848 356.29C171.514 355.697 171.05 355.234 170.457 354.9C169.873 354.557 169.192 354.386 168.415 354.386C167.605 354.386 166.887 354.574 166.26 354.95C165.642 355.317 165.158 355.814 164.807 356.441C164.456 357.059 164.277 357.748 164.268 358.508V361.652C164.268 362.604 164.444 363.427 164.795 364.12C165.154 364.814 165.659 365.348 166.31 365.724C166.962 366.1 167.735 366.288 168.628 366.288C169.221 366.288 169.764 366.204 170.257 366.037C170.75 365.87 171.172 365.62 171.522 365.286C171.873 364.951 172.14 364.542 172.324 364.058L177.26 364.384C177.01 365.57 176.496 366.605 175.719 367.491C174.951 368.368 173.957 369.052 172.738 369.545C171.526 370.03 170.127 370.272 168.541 370.272ZM193.196 361.702V350.652H198.533V369.896H193.409V366.401H193.209C192.775 367.528 192.052 368.434 191.042 369.119C190.039 369.804 188.816 370.147 187.371 370.147C186.084 370.147 184.953 369.854 183.976 369.27C182.998 368.685 182.234 367.854 181.683 366.776C181.14 365.699 180.864 364.409 180.856 362.905V350.652H186.193V361.953C186.201 363.089 186.506 363.987 187.108 364.647C187.709 365.306 188.515 365.636 189.526 365.636C190.169 365.636 190.77 365.49 191.33 365.198C191.889 364.897 192.34 364.455 192.683 363.87C193.034 363.285 193.205 362.563 193.196 361.702Z" fill="white"/>
<path d="M45.8699 21.5401V42.1083H39.9076V21.5401H45.8699ZM35.8504 26.7262C35.8504 35.4756 28.0183 39.6387 17.5754 39.6387V34.3819C24.702 34.3114 29.7823 31.7712 29.7823 27.714V27.0437H17.5754V21.8929H35.8504V26.7262ZM47.2106 46.7299L45.1643 52.0219L32.0402 47.2591C28.5828 50.1874 23.6436 51.6691 18.6338 51.6691V46.0949C24.2786 46.0949 29.2884 43.6958 30.4173 39.4623L36.3796 40.5207C36.1327 41.4027 35.8152 42.2141 35.4271 42.9903L47.2106 46.7299ZM71.1626 23.304V27.6082H50.5591V23.304H57.8268V21.0109H63.8949V23.304H71.1626ZM73.985 21.5401H79.9473V38.5803H73.985V34.6289H70.8098V29.4075H73.985V21.5401ZM69.9984 33.7116C69.9984 37.2396 65.8353 39.0742 60.8609 39.0742C55.8864 39.0742 51.7234 37.2396 51.7234 33.7116C51.7234 30.1836 55.8864 28.3491 60.8609 28.3491C65.8353 28.3491 69.9984 30.1836 69.9984 33.7116ZM57.2976 33.7116C57.2976 34.5583 58.7088 35.017 60.8609 35.017C63.0129 35.017 64.4241 34.5583 64.4241 33.7116C64.4241 32.8649 63.0129 32.4063 60.8609 32.4063C58.7088 32.4063 57.2976 32.8649 57.2976 33.7116ZM74.1614 41.3321V39.6387H79.9473V51.6691H52.9934V39.6387H58.7794V41.3321H74.1614ZM58.7794 47.2238H74.1614V45.5304H58.7794V47.2238ZM45.8699 56.5401V86.6691H39.9076V56.5401H45.8699ZM35.5329 57.2457V73.8272H23.9964V79.8954H30.5232C33.3808 79.8954 36.4855 79.2956 38.32 78.4489V83.8114C36.4855 84.7287 33.275 85.2579 30.2762 85.2579H18.0694V68.5352H29.6059V62.6082H17.9988V57.2457H35.5329ZM79.4887 57.2457V62.7846H58.4266V70.3698H79.8415V75.8735H52.3231V57.2457H79.4887ZM81.1468 80.0365V85.6107H50.665V80.0365H81.1468ZM113.742 56.5401V86.6691H107.78V56.5401H113.742ZM103.794 57.2457V85.2579H85.9419V57.2457H103.794ZM91.9042 79.6837H97.8312V62.8199H91.9042V79.6837ZM24.702 106.146V97.3965H18.1399V91.8929H30.6643V106.146H24.702ZM39.6254 106.146V97.3965H32.0402V91.8929H45.5877V106.146H39.6254ZM47.2106 107.945V113.484H34.8626V122.375H28.6886V113.484H16.7287V107.945H47.2106ZM79.8062 91.5401V121.669H73.8439V91.5401H79.8062ZM69.8573 92.2457V120.258H52.0056V92.2457H69.8573ZM57.9679 114.684H63.8949V97.8199H57.9679V114.684ZM113.742 91.5401V121.669H107.78V91.5401H113.742ZM103.123 92.2457V100.395C103.123 112.637 96.3142 120.258 85.7655 120.258V114.613C93.0684 114.543 97.0198 109.109 97.0198 100.395V97.6788H85.7655V92.2457H103.123ZM35.3212 137.935L27.2069 134.372C24.8431 136.56 21.5268 138.006 17.6107 138.077V133.279C21.8796 132.996 24.8431 129.715 25.0195 126.117L30.9465 126.469C30.9465 127.845 30.629 129.186 30.0292 130.491L37.5086 133.596L35.3212 137.935ZM39.9782 126.54H45.9405V144.074H39.9782V126.54ZM40.0487 146.685V144.991H45.9405V156.669H18.9866V144.991H23.9964V143.474H16.7287V139.064H30.4526C33.2397 139.064 36.3796 138.782 38.2495 137.971V142.381C36.3796 143.192 33.3456 143.474 30.3468 143.474H29.8529V145.626H24.8784V146.685H40.0487ZM24.8784 152.436H40.0487V150.813H24.8784V152.436ZM75.0081 126.54H80.6529V156.669H75.0081V126.54ZM67.176 137.618V126.681H72.7502V156.14H67.176V143.263H63.5774C61.7782 151.271 56.7684 155.187 51.0883 155.258V149.684C55.6394 149.331 58.603 144.921 58.603 136.454V132.608H51.0883V127.246H64.3183V136.242C64.3183 136.701 64.3183 137.159 64.283 137.618H67.176ZM107.966 126.434V130.174H114.669V135.607H95.1243V130.174H101.863V126.434H107.966ZM126.312 137.547V143.333H122.784V156.669H116.821V126.54H122.784V137.547H126.312ZM104.897 136.842C110.33 136.842 113.646 140.899 113.646 146.226C113.646 151.589 110.33 155.611 104.897 155.611C99.4637 155.611 96.1474 151.589 96.1474 146.226C96.1474 140.899 99.4637 136.842 104.897 136.842ZM104.897 150.495C106.837 150.495 107.966 148.802 107.966 146.226C107.966 143.651 106.837 141.957 104.897 141.957C102.956 141.957 101.827 143.651 101.827 146.226C101.827 148.802 102.956 150.495 104.897 150.495ZM151.04 147.108V132.785H130.013V127.246H157.249V147.108H151.04ZM144.407 150.036H158.907V155.611H128.426V150.036H138.233V138.253H144.407V150.036ZM45.8699 161.54V177.451H39.9076V161.54H45.8699ZM27.7008 171.983C25.1606 175.017 21.4209 177.028 17.1168 177.24V171.948C21.8796 171.383 25.1959 167.361 25.3017 161.681L31.2993 162.034C31.2993 163.974 30.9465 165.879 30.2762 167.608L38.6376 172.512L35.674 176.852L27.7008 171.983ZM40.966 186.942H46.2227V191.669H18.5633V186.942H23.82V183.202H18.9161V178.51H45.8699V183.202H40.966V186.942ZM29.7117 183.202V186.942H35.0743V183.202H29.7117ZM82.4875 172.547V178.333H78.9595V191.669H72.9972V161.54H78.9595V172.547H82.4875ZM57.7562 184.86H63.7891C66.6468 184.86 69.7514 184.366 71.586 183.519V188.847C69.7514 189.764 66.2587 190.258 63.3657 190.258H51.6881V162.246H69.2222V167.643H57.7562V184.86ZM107.216 182.108V167.785H86.1888V162.246H113.425V182.108H107.216ZM100.583 185.036H115.083V190.611H84.6012V185.036H94.409V173.253H100.583V185.036ZM124.994 181.65C124.994 178.157 125.946 176.217 128.522 174.276C130.603 172.689 131.732 171.63 131.732 169.937C131.732 168.173 130.462 167.079 128.239 167.079C125.876 167.079 124.606 168.737 124.606 170.536H118.467C118.467 165.456 122.489 161.646 128.204 161.646C134.308 161.646 137.765 165.139 137.765 169.937C137.765 172.547 136.495 174.629 134.202 176.393C131.626 178.404 130.815 179.674 130.815 181.65H124.994ZM128.098 191.669C125.946 191.669 124.359 190.117 124.359 187.965C124.359 185.813 125.946 184.225 128.098 184.225C130.25 184.225 131.838 185.813 131.838 187.965C131.838 190.117 130.25 191.669 128.098 191.669Z" fill="white"/>
<path d="M11.024 394.34C7.556 394.34 5.264 391.844 5.264 388.7C5.264 385.676 7.544 383.084 11.06 383.084C14.648 383.084 16.724 385.472 16.724 388.28C16.724 390.224 15.476 391.748 13.772 391.748C13.052 391.748 12.452 391.376 12.152 390.848L12.092 390.74C11.756 391.232 11.252 391.496 10.556 391.496C9.02 391.496 7.976 390.356 7.976 388.76C7.976 387.128 9.02 385.976 10.556 385.976C11.216 385.976 11.696 386.228 12.008 386.66V386.12H13.652V389.564C13.652 389.972 13.808 390.272 14.168 390.272C14.732 390.272 15.104 389.528 15.104 388.304C15.104 386.084 13.592 384.452 11.06 384.452C8.576 384.452 6.884 386.288 6.884 388.7C6.884 391.136 8.564 392.948 11.024 392.948C12.452 392.948 13.484 392.72 14.264 392.228V393.44C13.52 394.016 12.332 394.34 11.024 394.34ZM10.796 390.08C11.516 390.08 11.984 389.516 11.984 388.76C11.984 387.956 11.516 387.416 10.796 387.416C10.112 387.416 9.656 387.956 9.656 388.76C9.656 389.516 10.112 390.08 10.796 390.08ZM22.7003 393.32C19.6643 393.32 17.4203 391.148 17.4203 388.184C17.4203 385.22 19.6643 383.048 22.7003 383.048C25.7363 383.048 27.9803 385.22 27.9803 388.184C27.9803 391.148 25.7363 393.32 22.7003 393.32ZM22.7003 391.352C24.4763 391.352 25.7963 390.02 25.7963 388.184C25.7963 386.336 24.4763 385.016 22.7003 385.016C20.9243 385.016 19.6043 386.336 19.6043 388.184C19.6043 390.02 20.9243 391.352 22.7003 391.352ZM37.6301 393.08H35.0981L33.2021 389.996H31.4621V393.08H29.2781V383.3H33.2141C35.6981 383.3 37.1501 384.62 37.1501 386.648C37.1501 387.992 36.5141 389.024 35.3621 389.564L37.6301 393.08ZM31.4621 385.232V388.064H33.1181C34.2701 388.064 34.9661 387.572 34.9661 386.648C34.9661 385.724 34.2701 385.232 33.1181 385.232H31.4621ZM38.6413 393.08V383.3H45.9133V385.196H40.8253V387.188H45.4933V389.084H40.8253V391.184H46.0213V393.08H38.6413ZM47.369 388.748V383.3H49.553V388.748C49.553 390.308 50.417 391.352 51.845 391.352C53.273 391.352 54.137 390.308 54.137 388.748V383.3H56.321V388.748C56.321 391.52 54.533 393.32 51.845 393.32C49.157 393.32 47.369 391.52 47.369 388.748ZM57.9304 393.08V383.3H61.7224C64.9624 383.3 66.9664 385.304 66.9664 388.196C66.9664 391.088 64.9624 393.08 61.7224 393.08H57.9304ZM60.1144 391.148H61.7584C63.6304 391.148 64.7824 390.08 64.7824 388.196C64.7824 386.312 63.6304 385.232 61.7584 385.232H60.1144V391.148ZM74.4696 393.08L73.7856 391.184H69.9936L69.3096 393.08H67.0536L70.8456 383.3H73.1136L76.9056 393.08H74.4696ZM70.6656 389.288H73.1136L71.8896 385.88L70.6656 389.288Z" fill="black"/>
</g>
<defs>
<filter id="filter0_d_1444_6614" x="53" y="300.616" width="211.68" height="31.7521" filterUnits="userSpaceOnUse" color-interpolation-filters="sRGB">
<feFlood flood-opacity="0" result="BackgroundImageFix"/>
<feColorMatrix in="SourceAlpha" type="matrix" values="0 0 0 0 0 0 0 0 0 0 0 0 0 0 0 0 0 0 127 0" result="hardAlpha"/>
<feOffset dy="3.52799"/>
<feComposite in2="hardAlpha" operator="out"/>
<feColorMatrix type="matrix" values="0 0 0 0 0 0 0 0 0 0 0 0 0 0 0 0 0 0 0.25 0"/>
<feBlend mode="normal" in2="BackgroundImageFix" result="effect1_dropShadow_1444_6614"/>
<feBlend mode="normal" in="SourceGraphic" in2="effect1_dropShadow_1444_6614" result="shape"/>
</filter>
<clipPath id="clip0_1444_6614">
<rect width="200" height="400" fill="white"/>
</clipPath>
</defs>
</svg>
